<?xml version="1.0" standalone="no"?>
<!DOCTYPE svg PUBLIC "-//W3C//DTD SVG 20010904//EN"
 "http://www.w3.org/TR/2001/REC-SVG-20010904/DTD/svg10.dtd">
<svg version="1.0" xmlns="http://www.w3.org/2000/svg"
 width="700.000000pt" height="700.000000pt" viewBox="0 0 700.000000 700.000000"
 preserveAspectRatio="xMidYMid meet">
<metadata>
Created by potrace 1.14, written by Peter Selinger 2001-2017
</metadata>
<g transform="translate(0.000000,700.000000) scale(0.100000,-0.100000)"
fill="#000000" stroke="none">
<path d="M3378 6415 c-2 -1 -48 -5 -103 -9 -55 -3 -118 -9 -140 -12 -91 -12
-224 -36 -285 -50 -36 -9 -72 -17 -81 -19 -51 -11 -240 -73 -339 -112 -371
-146 -699 -361 -985 -648 -184 -183 -284 -309 -441 -555 -181 -284 -350 -758
-390 -1095 -4 -27 -8 -52 -9 -55 -8 -13 -19 -227 -19 -360 0 -225 11 -345 50
-545 90 -473 289 -903 593 -1285 70 -88 280 -306 361 -375 321 -275 694 -477
1094 -594 75 -22 155 -43 178 -46 23 -4 45 -8 48 -10 7 -4 159 -30 230 -40
189 -24 596 -25 715 0 11 2 43 7 70 10 28 3 57 8 65 10 8 2 33 6 55 10 22 3
92 19 155 34 1027 256 1829 1040 2113 2066 20 72 38 144 41 160 3 17 12 68 20
115 8 47 17 105 20 130 2 25 8 77 12 115 9 88 10 363 1 475 -32 416 -162 841
-365 1200 -316 556 -817 1007 -1391 1249 -118 49 -152 63 -161 65 -3 1 -41 13
-85 28 -207 68 -411 111 -645 133 -64 7 -377 15 -382 10z m-168 -1850 c0 -685
1 -1248 1 -1252 6 -29 42 -121 60 -152 12 -20 368 -383 791 -807 l770 -771
-84 -54 c-243 -157 -635 -304 -888 -334 -25 -2 -61 -7 -80 -10 -105 -15 -374
-22 -455 -11 -16 2 -64 7 -105 11 -41 4 -77 9 -80 10 -3 2 -26 6 -50 10 -41 6
-196 40 -228 50 -7 3 -16 5 -20 6 -4 1 -43 14 -87 29 -613 208 -1117 665
-1381 1253 -77 171 -138 370 -170 553 -3 16 -7 36 -9 44 -12 44 -20 177 -20
355 0 212 6 299 30 417 17 89 18 93 49 218 7 26 66 204 75 225 4 11 13 31 18
45 34 84 146 291 208 386 310 467 767 801 1312 958 114 33 141 39 228 52 22 3
42 8 44 10 2 2 19 4 38 4 l33 0 0 -1245z m735 1225 c282 -52 579 -173 830
-338 414 -271 728 -660 905 -1121 58 -152 130 -439 130 -521 0 -20 -7 -20
-1010 -20 l-1010 0 0 1011 0 1011 48 -5 c26 -3 74 -11 107 -17z m1861 -2633
c-24 -222 -128 -536 -251 -763 -76 -138 -264 -412 -286 -414 -6 0 -1229 1220
-1229 1226 0 2 399 3 886 3 l886 0 -6 -52z"/>
</g>
</svg>
